<mxfile host="app.diagrams.net" modified="2022-11-02T08:21:10.994Z" agent="5.0 (X11; Linux x86_64) AppleWebKit/537.36 (KHTML, like Gecko) Chrome/106.0.0.0 Safari/537.36" etag="WtLttQhS0AUtOf4z2gqS" version="20.5.1" type="github">
  <diagram id="NRSQavgiWOYJAYmkct5V" name="第 1 页">
    <mxGraphModel dx="1422" dy="748" grid="1" gridSize="10" guides="1" tooltips="1" connect="1" arrows="1" fold="1" page="1" pageScale="1" pageWidth="827" pageHeight="1169" math="0" shadow="0">
      <root>
        <mxCell id="0" />
        <mxCell id="1" parent="0" />
        <mxCell id="vxAvbnrJkOdN9hgu8ILh-1" style="edgeStyle=orthogonalEdgeStyle;rounded=0;orthogonalLoop=1;jettySize=auto;html=1;exitX=0.5;exitY=1;exitDx=0;exitDy=0;entryX=0.5;entryY=0;entryDx=0;entryDy=0;" edge="1" parent="1" source="vxAvbnrJkOdN9hgu8ILh-2" target="vxAvbnrJkOdN9hgu8ILh-5">
          <mxGeometry relative="1" as="geometry" />
        </mxCell>
        <mxCell id="vxAvbnrJkOdN9hgu8ILh-2" value="任务配置" style="rounded=0;whiteSpace=wrap;html=1;" vertex="1" parent="1">
          <mxGeometry x="239" y="120" width="120" height="60" as="geometry" />
        </mxCell>
        <mxCell id="vxAvbnrJkOdN9hgu8ILh-20" style="edgeStyle=orthogonalEdgeStyle;rounded=0;orthogonalLoop=1;jettySize=auto;html=1;exitX=1;exitY=0.5;exitDx=0;exitDy=0;entryX=0;entryY=0.5;entryDx=0;entryDy=0;" edge="1" parent="1" source="vxAvbnrJkOdN9hgu8ILh-5" target="vxAvbnrJkOdN9hgu8ILh-9">
          <mxGeometry relative="1" as="geometry" />
        </mxCell>
        <mxCell id="vxAvbnrJkOdN9hgu8ILh-26" value="DB" style="edgeLabel;html=1;align=center;verticalAlign=middle;resizable=0;points=[];" vertex="1" connectable="0" parent="vxAvbnrJkOdN9hgu8ILh-20">
          <mxGeometry x="-0.2545" y="-1" relative="1" as="geometry">
            <mxPoint as="offset" />
          </mxGeometry>
        </mxCell>
        <mxCell id="vxAvbnrJkOdN9hgu8ILh-5" value="触发任务执行" style="rounded=0;whiteSpace=wrap;html=1;" vertex="1" parent="1">
          <mxGeometry x="239" y="230" width="120" height="60" as="geometry" />
        </mxCell>
        <mxCell id="vxAvbnrJkOdN9hgu8ILh-21" style="edgeStyle=orthogonalEdgeStyle;rounded=0;orthogonalLoop=1;jettySize=auto;html=1;exitX=0.5;exitY=1;exitDx=0;exitDy=0;entryX=0.5;entryY=0;entryDx=0;entryDy=0;" edge="1" parent="1" source="vxAvbnrJkOdN9hgu8ILh-9" target="vxAvbnrJkOdN9hgu8ILh-13">
          <mxGeometry relative="1" as="geometry" />
        </mxCell>
        <mxCell id="vxAvbnrJkOdN9hgu8ILh-27" value="DB" style="edgeLabel;html=1;align=center;verticalAlign=middle;resizable=0;points=[];" vertex="1" connectable="0" parent="vxAvbnrJkOdN9hgu8ILh-21">
          <mxGeometry x="0.1286" y="-3" relative="1" as="geometry">
            <mxPoint as="offset" />
          </mxGeometry>
        </mxCell>
        <mxCell id="vxAvbnrJkOdN9hgu8ILh-9" value="获取已有数据" style="rounded=0;whiteSpace=wrap;html=1;" vertex="1" parent="1">
          <mxGeometry x="469" y="230" width="120" height="60" as="geometry" />
        </mxCell>
        <mxCell id="vxAvbnrJkOdN9hgu8ILh-23" style="edgeStyle=orthogonalEdgeStyle;rounded=0;orthogonalLoop=1;jettySize=auto;html=1;exitX=1;exitY=0.5;exitDx=0;exitDy=0;" edge="1" parent="1" source="vxAvbnrJkOdN9hgu8ILh-13" target="vxAvbnrJkOdN9hgu8ILh-22">
          <mxGeometry relative="1" as="geometry" />
        </mxCell>
        <mxCell id="vxAvbnrJkOdN9hgu8ILh-28" value="DB" style="edgeLabel;html=1;align=center;verticalAlign=middle;resizable=0;points=[];" vertex="1" connectable="0" parent="vxAvbnrJkOdN9hgu8ILh-23">
          <mxGeometry x="-0.3091" y="2" relative="1" as="geometry">
            <mxPoint as="offset" />
          </mxGeometry>
        </mxCell>
        <mxCell id="vxAvbnrJkOdN9hgu8ILh-25" style="edgeStyle=orthogonalEdgeStyle;rounded=0;orthogonalLoop=1;jettySize=auto;html=1;exitX=0.5;exitY=1;exitDx=0;exitDy=0;entryX=0.5;entryY=0;entryDx=0;entryDy=0;" edge="1" parent="1" source="vxAvbnrJkOdN9hgu8ILh-13" target="vxAvbnrJkOdN9hgu8ILh-14">
          <mxGeometry relative="1" as="geometry" />
        </mxCell>
        <mxCell id="vxAvbnrJkOdN9hgu8ILh-13" value="解析数据" style="rounded=0;whiteSpace=wrap;html=1;" vertex="1" parent="1">
          <mxGeometry x="239" y="340" width="120" height="60" as="geometry" />
        </mxCell>
        <mxCell id="vxAvbnrJkOdN9hgu8ILh-14" value="记录日志" style="rounded=0;whiteSpace=wrap;html=1;" vertex="1" parent="1">
          <mxGeometry x="239" y="430" width="120" height="60" as="geometry" />
        </mxCell>
        <mxCell id="vxAvbnrJkOdN9hgu8ILh-15" value="" style="endArrow=none;dashed=1;html=1;dashPattern=1 3;strokeWidth=2;rounded=0;" edge="1" parent="1">
          <mxGeometry width="50" height="50" relative="1" as="geometry">
            <mxPoint x="419" y="510" as="sourcePoint" />
            <mxPoint x="419" y="80" as="targetPoint" />
          </mxGeometry>
        </mxCell>
        <mxCell id="vxAvbnrJkOdN9hgu8ILh-17" value="数据库" style="text;html=1;align=center;verticalAlign=middle;resizable=0;points=[];autosize=1;strokeColor=none;fillColor=none;" vertex="1" parent="1">
          <mxGeometry x="499" y="80" width="60" height="30" as="geometry" />
        </mxCell>
        <mxCell id="vxAvbnrJkOdN9hgu8ILh-19" value="任务" style="text;html=1;align=center;verticalAlign=middle;resizable=0;points=[];autosize=1;strokeColor=none;fillColor=none;" vertex="1" parent="1">
          <mxGeometry x="269" y="80" width="50" height="30" as="geometry" />
        </mxCell>
        <mxCell id="vxAvbnrJkOdN9hgu8ILh-22" value="更新或创建" style="rounded=0;whiteSpace=wrap;html=1;" vertex="1" parent="1">
          <mxGeometry x="469" y="340" width="120" height="60" as="geometry" />
        </mxCell>
      </root>
    </mxGraphModel>
  </diagram>
</mxfile>
